# xmcd CD database file
#
# Track frame offsets:
#	182
#	16652
#	34437
#	49750
#
# Disc length: 1077 seconds
#
# Revision: 0
# Processed by: cddbd v1.4PL0 Copyright (c) Steve Scherf et al.
# Submitted via: CDex 1.50beta9
#
DISCID=29043304
DTITLE=Hue and Cry - All true man
DYEAR=1996
DGENRE=Jazz
TTITLE0=All true man (Edit)
TTITLE1=Finally (Edit)
TTITLE2=Free like you (Edit)
TTITLE3=Iron cage (Edit)
EXTD=YEAR: 1996
EXTT0=
EXTT1=
EXTT2=
EXTT3=
PLAYORDER=
